<svg width="302" height="149" viewBox="0 0 302 149" fill="none" xmlns="http://www.w3.org/2000/svg">
<path d="M111.207 113.24H35.4651C31.678 113.24 28.6049 110.167 28.6049 106.38V52.4915C28.6049 48.7044 31.678 45.6313 35.4651 45.6313H109.422C114.202 45.6313 118.067 49.4959 118.067 54.2764V106.38C118.067 110.167 114.994 113.24 111.207 113.24Z" fill="#754C24"/>
<path d="M103.26 114.683H38.4762C33.0283 114.683 28.6049 110.26 28.6049 104.812V60.6554C28.6049 55.2076 33.0283 50.7842 38.4762 50.7842H103.26C108.708 50.7842 113.131 55.2076 113.131 60.6554V104.797C113.131 110.26 108.708 114.683 103.26 114.683Z" fill="#F2F2F2"/>
<path d="M106.349 58.9326L51.0014 75.8503C49.3407 76.3625 47.5869 75.4313 47.0902 73.7705L38.2433 44.8552C37.7311 43.1945 38.6624 41.4406 40.3231 40.944L95.6704 24.0262C97.3311 23.5141 99.085 24.4453 99.5817 26.106L108.429 55.0214C108.941 56.6821 108.009 58.4359 106.349 58.9326Z" fill="#4B9CB2"/>
<path d="M100.52 29.1729L39.1751 47.9296L41.6349 55.9743L102.979 37.2175L100.52 29.1729Z" fill="#1B4A59"/>
<path d="M82.9533 46.9176L63.6727 52.8128L64.0449 54.0299L83.3254 48.1347L82.9533 46.9176Z" fill="#1F6175"/>
<path d="M84.0711 50.5652L64.7906 56.4605L65.1628 57.6776L84.4433 51.7823L84.0711 50.5652Z" fill="#1F6175"/>
<path d="M85.189 54.2129L65.9085 60.1081L66.2807 61.3252L85.5612 55.43L85.189 54.2129Z" fill="#1F6175"/>
<path d="M101.421 47.5091C101.546 45.4384 99.969 43.6585 97.8983 43.5336C95.8276 43.4087 94.0478 44.9861 93.9229 47.0568C93.798 49.1274 95.3753 50.9073 97.446 51.0322C99.5167 51.1571 101.297 49.5797 101.421 47.5091Z" fill="#FBB03B"/>
<path d="M95.0099 51.6816C96.5624 50.3058 96.7057 47.932 95.3299 46.3795C93.9542 44.8271 91.5804 44.6838 90.0279 46.0595C88.4754 47.4353 88.3321 49.8091 89.7079 51.3616C91.0836 52.914 93.4574 53.0573 95.0099 51.6816Z" fill="#C1272D"/>
<path d="M106.97 62.0212H36.3187V54.4005H99.9386C103.819 54.4005 106.97 57.5512 106.97 61.4314V62.0212V62.0212Z" fill="#F2F2F2"/>
<path d="M108.196 125.113H38.4762C33.0283 125.113 28.6049 120.69 28.6049 115.242V67.3759C28.6049 61.9281 33.0283 57.5047 38.4762 57.5047H108.196C113.644 57.5047 118.067 61.9281 118.067 67.3759V115.242C118.067 120.69 113.644 125.113 108.196 125.113Z" fill="#A67C52"/>
<path d="M118.439 99.8145H100.296C95.4686 99.8145 91.5729 95.9032 91.5729 91.0918C91.5729 86.2648 95.4842 82.3691 100.296 82.3691H118.424C119.51 82.3691 120.395 83.2538 120.395 84.3402V97.8589C120.395 98.9298 119.526 99.8145 118.439 99.8145Z" fill="#C69C6D"/>
<path d="M100.606 96.462C103.572 96.462 105.976 94.0577 105.976 91.0918C105.976 88.1259 103.572 85.7216 100.606 85.7216C97.6402 85.7216 95.2358 88.1259 95.2358 91.0918C95.2358 94.0577 97.6402 96.462 100.606 96.462Z" fill="#E5C19E"/>
<path d="M118.067 67.9968H28.6049V72.653H118.067V67.9968Z" fill="#C69C6D"/>
<path d="M118.067 112.247H28.6049V116.903H118.067V112.247Z" fill="#C69C6D"/>
<path d="M28.6049 51.762C28.6049 51.762 28.4497 57.5047 35.4185 57.5047C38.4296 57.5047 40.944 57.5047 40.944 57.5047L28.6049 67.3915V51.762Z" fill="#A67C52"/>
<path d="M174.416 46.36L175.232 53.224H164.816V79H156.08V53.224H146.48V46.36H174.416ZM179.559 46.36H193.287C195.719 46.36 197.943 46.744 199.959 47.512C202.007 48.28 203.639 49.48 204.855 51.112C206.103 52.744 206.727 54.872 206.727 57.496C206.727 59.48 206.311 61.192 205.479 62.632C204.679 64.072 203.623 65.24 202.311 66.136L209.511 79H199.383L194.103 68.728H188.295V79H179.559V46.36ZM192.999 53.224H188.295V61.864H193.095C194.439 61.864 195.543 61.464 196.407 60.664C197.271 59.832 197.703 58.776 197.703 57.496C197.703 56.056 197.287 54.984 196.455 54.28C195.623 53.576 194.471 53.224 192.999 53.224ZM229.568 79H220.832V66.136L210.464 47.992L218.816 45.688L225.152 58.12L231.92 46.36H240.896L229.568 66.232V79ZM257.567 79H245.231V46.36H256.607C259.007 46.36 261.215 46.68 263.231 47.32C265.279 47.96 266.927 48.968 268.175 50.344C269.423 51.72 270.047 53.528 270.047 55.768C270.047 57.048 269.727 58.168 269.087 59.128C268.447 60.088 267.759 60.936 267.023 61.672C268.303 62.568 269.343 63.672 270.143 64.984C270.975 66.264 271.391 67.688 271.391 69.256C271.391 71.112 271.007 72.68 270.239 73.96C269.471 75.208 268.431 76.2 267.119 76.936C265.807 77.672 264.319 78.2 262.655 78.52C261.023 78.84 259.327 79 257.567 79ZM256.319 53.224H253.967V58.744H255.935C257.279 58.744 258.463 58.536 259.487 58.12C260.511 57.704 261.023 57.064 261.023 56.2C261.023 55.208 260.607 54.472 259.775 53.992C258.943 53.48 257.791 53.224 256.319 53.224ZM257.663 65.608H253.967V72.136H257.759C259.103 72.136 260.207 71.88 261.071 71.368C261.935 70.856 262.367 70.088 262.367 69.064C262.367 67.976 261.951 67.128 261.119 66.52C260.287 65.912 259.135 65.608 257.663 65.608ZM300.072 79H276.168V46.36H297.816L298.632 53.224H284.904V59.176H294.936L295.752 66.04H284.904V72.136H299.256L300.072 79Z" fill="black"/>
<path d="M172.716 93.96L167.508 113H165.38L161.012 97.264L156.896 113H154.768L149.28 94.1L151.464 93.764L155.86 109.976L159.976 93.96H162.132L166.444 109.976L170.588 93.96H172.716ZM190.704 93.96H192.832L200.14 112.832L197.956 113.168L195.828 107.596H187.792L185.804 113H183.648L190.704 93.96ZM195.184 105.804L191.74 96.872L188.408 105.804H195.184ZM224.454 111.236L224.678 113H213.394V93.96H215.606V111.236H224.454ZM248.978 111.236L249.202 113H237.918V93.96H240.13V111.236H248.978ZM273.922 113H262.442V93.96H272.83L273.082 95.612H264.654V102.444H271.234L271.486 104.096H264.654V111.236H273.642L273.922 113ZM300.087 93.96L300.339 95.696H293.759V113H291.519V95.696H285.135V93.96H300.087Z" fill="black"/>
</svg>
